<svg class="vignette-promo" xmlns="http://www.w3.org/2000/svg" viewBox="0 0 1200 720">
    <style>
        .vignette-promo {
            background: rgb(247, 99, 98);
            background: linear-gradient(150deg, rgba(248, 120, 120, 1) 0%, rgba(248, 100, 100, 1) 50%, rgba(248, 120, 120, 1) 100%);
        }

        .vignette-promo #Moins {
            animation: 3s levitate ease-in-out infinite;
        }

        .vignette-promo #Trois {
            animation: 3s levitate -0.25s ease-in-out infinite;
        }

        .vignette-promo #Zero {
            animation: 3s levitate -0.5s ease-in-out infinite;
        }

        .vignette-promo #BulleA {
            animation: 3s levitate -0.75s ease-in-out infinite;
        }

        .vignette-promo #Barre {
            animation: 3s levitate -1s ease-in-out infinite;
        }

        .vignette-promo #BulleB2 {
            animation: 3s levitate -1.25s ease-in-out infinite;
        }

        .vignette-promo #MoinsShdw {
            transform-origin: 84.40px 210.79px;
            animation: 3s blurShdw ease-in-out infinite;
        }

        .vignette-promo #TroisShdw {
            transform-origin: 236.23px 234.13px;
            animation: 3s blurShdw 0.25s ease-in-out infinite;
        }

        .vignette-promo #ZeroShdw {
            transform-origin: 506.85px 299.38px;
            animation: 3s blurShdw 0.5s ease-in-out infinite;
        }

        .vignette-promo #BulleAShdw {
            animation: 3s blurShdw 0.75s ease-in-out infinite;
        }

        .vignette-promo #BarreShdw {
            animation: 3s blurShdw 1s ease-in-out infinite;
        }

        .vignette-promo #BulleBShdw {
            animation: 3s blurShdw 1.25s ease-in-out infinite;
        }

        .vignette-promo .cls-1 {
            fill: #f77070;
        }

        .vignette-promo .cls-2 {
            fill: #e34b45;
        }

        .vignette-promo .cls-11,
        .vignette-promo .cls-15,
        .vignette-promo .cls-16,
        .vignette-promo .cls-3,
        .vignette-promo .cls-6 {
            fill: #fff;
        }

        .vignette-promo .cls-4 {
            font-size: 17px;
            fill: #850000;
            font-family: Ebrima;
            letter-spacing: -0.01em;
        }

        .vignette-promo .cls-5 {
            letter-spacing: -0.01em;
        }

        .vignette-promo .cls-6 {
            font-size: 40px;
            letter-spacing: -0.01em;
        }

        .vignette-promo .cls-11,
        .vignette-promo .cls-14,
        .vignette-promo .cls-15,
        .vignette-promo .cls-16,
        .vignette-promo .cls-6 {
            font-family: Arial-BoldMT, Arial;
            font-weight: 700;
        }

        .vignette-promo .cls-7 {
            letter-spacing: -0.03em;
        }

        .vignette-promo .cls-8 {
            letter-spacing: -0.09em;
        }

        .vignette-promo .cls-9 {
            fill: none;
            stroke: #fff;
            stroke-miterlimit: 10;
        }

        .vignette-promo .cls-10 {
            fill: #0c96b6;
        }

        .vignette-promo .cls-11 {
            font-size: 32px;
            letter-spacing: -0.01em;
        }

        .vignette-promo .cls-12,
        .vignette-promo .cls-13,
        .vignette-promo .cls-17 {
            font-family: ArialMT, Arial;
            font-weight: 400;
        }

        .vignette-promo .cls-12 {
            letter-spacing: -0.01em;
        }

        .vignette-promo .cls-13 {
            letter-spacing: -0.02em;
        }

        .vignette-promo .cls-14 {
            letter-spacing: -0.02em;
        }

        .vignette-promo .cls-15 {
            font-size: 38px;
            letter-spacing: 0.04em;
        }

        .vignette-promo .cls-16 {
            font-size: 25px;
            letter-spacing: 0.04em;
        }

        @keyframes levitate {
            0% {
                transform: translateY(5px);
            }

            50% {
                transform: translateY(-5px);
            }

            100% {
                transform: translateY(5px);
            }
        }

        @keyframes blurShdw {
            0% {
                filter: blur(0);
            }

            50% {
                filter: blur(5px);
            }

            100% {
                filter: blur(0);
            }
        }
    </style>
    <g id="OmbreTrente">
        <path id="TroisShdw" class="cls-2"
            d="M131.33,86H340.74l.23,55.36S289.46,181.71,271.54,196c29.72.91,82.81,32.22,79.18,90.07s-41.15,93.36-112,96.13c-60.86,2.38-111.33-38.61-117.19-92.8,23.52-4.16,68.75-12.4,68.75-12.4,6.37,37.5,28.13,46.73,51.23,45.46s37.36-18.65,37.93-37.07c1.14-36.53-32.9-49.68-67.84-34.71-9.77-15-30.19-47.33-30.19-47.33l70.13-57.49-119.34.23Z" />
        <path id="ZeroShdw" class="cls-2"
            d="M504.6,143.46C404.41,144.88,376.9,230.77,379,305.77c2.52,88.74,47.81,149.56,127.85,149.56,100.41,0,126.75-81.2,127.86-153.65C636.11,212.58,600.47,142.11,504.6,143.46Zm3.59,248c-45.65,0-56-44.92-56.05-92.05,0-40.08,10.77-92.78,54.94-92.78,41.56,0,54.55,42.31,54.55,91.67C561.63,344,553.84,391.49,508.19,391.5Z" />
        <polygon id="MoinsShdw" class="cls-2"
            points="32.06 187.07 136.26 187.07 136.74 234.39 32.72 234.52 32.06 187.07" />
        <polygon id="BarreShdw" class="cls-2"
            points="1068.42 379.51 1121.74 380.14 937.15 643.33 884.68 643.12 1068.42 379.51" />
        <path id="BulleBShdw" class="cls-2"
            d="M1096,513.45c-38.09,0-69,30.21-69,67.49s30.88,67.48,69,67.48,69-30.21,69-67.48S1134.05,513.45,1096,513.45Zm-.15,93.76c-13.38,0-24.23-11.58-24.23-25.87s10.85-25.86,24.23-25.86S1120,567.06,1120,581.34,1109.19,607.21,1095.81,607.21Z" />
        <path id="BulleAShdw" class="cls-2"
            d="M910.36,375.18c-38.09,0-69,30.21-69,67.48s30.88,67.49,69,67.49,69-30.21,69-67.49S948.45,375.18,910.36,375.18Zm-.15,93.76c-13.38,0-24.23-11.58-24.23-25.87s10.85-25.86,24.23-25.86,24.23,11.58,24.23,25.86S923.59,468.94,910.21,468.94Z" />
    </g>
    <g id="TrentePourc">
        <g>
            <path id="Trois" class="cls-3"
                d="M130.86,74.2H340.27l.22,55.36s-51.5,40.38-69.42,54.68c29.72.9,82.81,32.21,79.18,90.07s-41.15,93.35-112,96.12c-60.86,2.38-111.33-38.61-117.19-92.8,23.52-4.15,68.75-12.4,68.75-12.4C196.21,302.74,218,312,241.08,310.7S278.44,292,279,273.63c1.13-36.53-32.9-49.69-67.84-34.72-9.77-15-30.19-47.33-30.19-47.33L251.1,134.1l-119.34.22Z" />

            <path id="Zero" data-name="Zéro" class="cls-3"
                d="M504.12,131.7C403.94,133.11,376.43,219,378.56,294c2.53,88.75,47.81,149.57,127.85,149.57,100.41,0,126.75-81.2,127.86-153.65C635.64,200.81,600,130.34,504.12,131.7Zm3.6,248c-45.65,0-56-44.91-56.05-92.05,0-40.07,10.77-92.77,54.94-92.77,41.56,0,54.55,42.31,54.55,91.67C561.16,332.23,553.37,379.73,507.72,379.73Z" />
            <g id="Moins" data-name="Moins">
                <polygon class="cls-3" points="31.59 175.31 135.79 175.31 136.27 222.63 32.25 222.76 31.59 175.31" />
            </g>
            <g id="Barre" data-name="Barre">
                <polygon class="cls-3"
                    points="1067.95 367.74 1121.27 368.38 936.68 631.57 884.21 631.36 1067.95 367.74" />
            </g>
            <g id="BulleB2" data-name="BulleB">
                <path class="cls-3"
                    d="M1095.49,501.68c-38.09,0-69,30.22-69,67.49s30.89,67.49,69,67.49,69-30.22,69-67.49S1133.58,501.68,1095.49,501.68Zm-.15,93.76c-13.38,0-24.23-11.58-24.23-25.86s10.85-25.87,24.23-25.87,24.23,11.58,24.23,25.87S1108.72,595.44,1095.34,595.44Z" />
            </g>
            <g id="BulleA" data-name="BulleA">
                <path class="cls-3"
                    d="M909.89,363.41c-38.09,0-69,30.22-69,67.49s30.89,67.49,69,67.49,69-30.22,69-67.49S948,363.41,909.89,363.41Zm-.15,93.76c-13.38,0-24.23-11.58-24.23-25.86s10.85-25.87,24.23-25.87S934,417,934,431.31,923.12,457.17,909.74,457.17Z" />
            </g>
        </g>
    </g>
    <text class="cls-4" transform="translate(42.7 574.9) scale(1.04 1)">*Réduction à déduire du tarif
        affiché. Offre non
        rétroactive et non cumulable, valable pour toute nouvelle<tspan class="cls-4">
            <tspan x="0" y="25">inscription à une formation diplômante (CAP, BTS, BAC PRO, Titre pro)
                dans le cadre d’un
                financement</tspan>
        </tspan>
        <tspan x="0" y="50">personnel (hors financement CP, prise en charge de pôle emploi et autre
            organisme
            financeur.)</tspan>
    </text>
    <g id="TextUn">
        <text class="cls-6" transform="translate(109.57 437.53)">SUR <tspan class="cls-6" x="93.65" y="0">T</tspan>
            <tspan x="116.88" y="0">OUTES</tspan>
            <tspan x="-47.91" y="46">LES FORM</tspan>
            <tspan class="cls-8" x="154.91" y="46">A</tspan>
            <tspan x="180.35" y="46">TIONS</tspan>
            <tspan x="-16.78" y="92">DIPLÔMANTES</tspan>
        </text>
    </g>
    <g id="TexteJe">
        <text class="cls-6" transform="translate(734.36 129.7)">JE VEUX UN DIPLÔME</text>
    </g>
    <rect id="FrameCell" class="cls-9" x="735.28" y="232.81" width="438.95" height="90.56" rx="8.25" />
    <path id="BgCell" class="cls-3"
        d="M835.71,239.31c-5.24-5.81-5.76-7.85-5.76-10.5V199.54a4.82,4.82,0,0,1,4.81-4.81l233.44-7.17c4.14,0,4.22,2.23,8.18,9l-3.37,25.1C1073,224.29,835.71,239.31,835.71,239.31Z" />
    <path id="BlueCell" class="cls-10"
        d="M1072.78,233.81,839.34,241a4.82,4.82,0,0,1-4.81-4.81V206.89a4.82,4.82,0,0,1,4.81-4.81l233.44-7.17a4.82,4.82,0,0,1,4.81,4.81V229A4.82,4.82,0,0,1,1072.78,233.81Z" />
    <text id="CellContent" class="cls-11" transform="translate(771.16 269.97)">Contactez <tspan class="cls-12"
            x="158.92" y="0">votre conseiller</tspan>
        <tspan class="cls-13">
            <tspan x="-19.99" y="40">d’études</tspan>
            <tspan class="cls-14" x="96.13" y="40" xml:space="preserve"> pour en bénéficier !</tspan>
        </tspan>
    </text>
    <text id="CellTitle" class="cls-15" transform="translate(868.37 232.81)">DIPLOME</text>
    <text id="PromoPlus" class="cls-16" transform="translate(739.69 165.13)">*Jusqu’au 31/10/21<tspan class="cls-17"
            x="243.98" y="0" xml:space="preserve"> avec le code :</tspan></text>
</svg>